<svg width="500" height="500" viewBox="0 0 500 500" fill="none" xmlns="http://www.w3.org/2000/svg">
<path d="M148.905 294.984C143.288 289.368 135.297 287.208 128.816 291.744C122.552 296.496 121.04 305.352 125.792 311.832C134.216 323.496 147.825 329.976 164.241 329.976C190.161 329.976 207.873 309.888 207.873 280.08V228.24C207.873 220.464 201.392 213.984 193.401 213.984C185.624 213.984 179.144 220.464 179.144 228.24V280.08C179.144 289.8 176.553 301.248 164.241 301.248C157.113 301.248 152.577 298.656 148.905 294.984V294.984ZM193.401 199.728C201.392 199.728 207.873 193.248 207.873 185.256C207.873 177.48 201.392 171 193.401 171C185.624 171 179.144 177.48 179.144 185.256C179.144 193.248 185.624 199.728 193.401 199.728Z" fill="#FAFAFA"/>
<path d="M376.066 250.488C376.066 203.616 346.473 174.888 298.521 174.888H259.426H259.209H258.994C251.218 174.888 244.738 181.368 244.738 189.144V311.832C244.738 319.608 251.218 326.088 258.994 326.088C266.986 326.088 273.466 319.608 273.466 311.832V202.536H298.521C330.921 202.536 347.554 219.168 347.554 250.488C347.554 263.016 343.882 274.032 337.402 282.024C335.89 283.752 333.946 285.912 332.434 287.64C326.386 293.688 326.602 301.896 330.922 307.08C336.106 313.128 345.178 313.776 351.226 308.808C367.21 295.2 376.066 273.168 376.066 250.488V250.488ZM316.45 311.832C316.45 303.84 309.97 297.36 301.978 297.36C294.202 297.36 287.722 303.84 287.722 311.832C287.722 319.608 294.202 326.088 301.978 326.088C309.97 326.088 316.45 319.608 316.45 311.832Z" fill="#FAFAFA"/>
<circle cx="250" cy="250" r="220.5" stroke="#FAFAFA" stroke-width="15"/>
</svg>
